# xmcd
#
# Track frame offsets:
#	150
#	14414
#	31297
#	47446
#	63911
#	80367
#	97207
#	119015
#	134335
#	148467
#	166170
#
# Disc length: 2592 seconds
#
# Revision: 1
# Processed by: cddbd v1.5.2PL0 Copyright (c) Steve Scherf et al.
# Submitted via: EasyCDDAExtractor 7.0.6.1
#
DISCID=990a1e0b
DTITLE=Killville - Tyhjä Taulu
DYEAR=2005
DGENRE=
TTITLE0=Jäätyy maa
TTITLE1=Tyttö
TTITLE2=Pala taivasta
TTITLE3=En unta saa
TTITLE4=MIten minun käy
TTITLE5=Kyyneleet
TTITLE6=En tiedä suuntaa (studiolive)
TTITLE7=Silti tahdon jatkaa
TTITLE8=Sä tulit mun luo
TTITLE9=Hulluuden kakofonia
TTITLE10=Tabula rasa
EXTD=
EXTT0=
EXTT1=
EXTT2=
EXTT3=
EXTT4=
EXTT5=
EXTT6=
EXTT7=
EXTT8=
EXTT9=
EXTT10=
PLAYORDER=
